<svg version="1.2" xmlns="http://www.w3.org/2000/svg" viewBox="0 0 110 110" width="110" height="110"><style>.a{fill:#fff}</style><path class="a" d="m25.6 104.9c-0.6-0.1-1.1-0.6-1.3-1.2 0-0.1-0.1-0.3-0.1-0.5 0-0.4 0.1-0.6 0.2-0.9 0.1-0.1 9-15.1 9.2-15.5 0.4-0.6 1.1-1.3 1.7-1.6 0.1-0.1 0.2-0.2 0.2-0.2 0 0-0.2-0.1-0.4-0.2-7.8-4.2-14.1-10.6-18-18.5-1.4-2.9-2.5-5.7-3.2-8.9-0.7-2.6-1.1-5.2-1.2-8-0.1-0.8-0.1-3.3 0-4.1 0.5-9.4 4-18.2 10-25.4 2.2-2.6 4.8-5 7.6-7 4-2.8 8.2-4.9 13-6.3 2.6-0.7 5.7-1.3 8.5-1.5 2.2-0.1 4.2-0.1 6.4 0 8.7 0.6 17.2 4.1 24 9.7 3.6 3 6.7 6.7 9.1 10.6 3.6 6.1 5.6 12.8 6 19.9 0.1 0.8 0.1 3.3 0 4.1-0.1 2.2-0.3 4.2-0.8 6.3-1.6 8-5.5 15.4-11.3 21.3q-4.6 4.7-10.3 7.8c-0.2 0.1-0.4 0.2-0.4 0.2 0 0 0.1 0.1 0.3 0.2 0.5 0.4 1.1 0.9 1.5 1.5 0.2 0.3 9.1 15.4 9.3 15.6 0.2 0.4 0.2 1 0.1 1.4-0.2 0.6-0.7 1.1-1.4 1.3-0.1 0-3.1 0-29.3 0-25.5 0-29.2 0-29.4-0.1zm55.8-3.3c-0.1 0-1.8-2.9-3.9-6.4-2-3.5-3.8-6.4-3.9-6.5-0.3-0.5-0.7-0.9-1.3-1.1l-0.3-0.1h-3.5l-0.6 0.2c-3 1-5.9 1.6-9.1 1.8-1.5 0.2-1.8 0.2-3.8 0.2-1.3 0-2.2 0-2.6 0-3.9-0.3-6.9-0.9-10.3-2l-0.6-0.2h-3.5l-0.3 0.1c-0.5 0.2-1 0.6-1.3 1.1-0.1 0.1-1.9 3-3.9 6.5-2.1 3.5-3.8 6.4-3.9 6.4v0.1h52.8zm-27.6-42.3c0.2-0.1 0.5-0.4 0.6-0.6l0.1-0.2v-1.5c0.1-5.5 0.5-7.8 1.8-9.1 1-1 2.4-1.4 5.9-1.4l1.1-0.1 0.3-0.1c0.5-0.3 0.8-0.8 0.7-1.4-0.1-0.6-0.5-1-1.1-1.1-0.1 0-0.4-0.1-0.6-0.1-0.8 0-2.1 0-2.7-0.1-1.8-0.1-2.9-0.5-3.6-1.3-0.2-0.2-0.4-0.4-0.5-0.6q-0.8-1.2-1.1-4c-0.1-1.2-0.1-1.8-0.2-5v-1l-0.1-0.2c-0.2-0.5-0.8-0.8-1.4-0.7-0.3 0.1-0.7 0.4-0.9 0.7 0 0.2-0.1 0.3-0.1 0.8 0 1.5 0 3.3-0.1 4-0.3 4.5-1.1 6.2-3.3 7-0.9 0.3-2 0.4-4.2 0.4-1.3 0.1-1.3 0.1-1.6 0.3-0.2 0.1-0.3 0.2-0.4 0.3-0.1 0.3-0.2 0.5-0.2 0.9 0 0.5 0.3 0.9 0.8 1.1l0.2 0.1 1.1 0.1c3.1 0 4.4 0.3 5.4 1 1 0.7 1.6 1.8 1.9 3.8 0.2 1.2 0.4 3.4 0.4 5.4 0 0.4 0 1 0 1.3 0 0.4 0.1 0.5 0.1 0.7 0.2 0.3 0.5 0.5 0.8 0.7 0.3 0 0.7 0 0.9-0.1zm17.9-2.1c0.1-0.1 0.2-0.2 0.2-0.5 0-1.1 0.3-2.3 0.8-3 0.5-0.6 1.2-1 1.9-1q0.5 0 0.5-0.4c0-0.1-0.1-0.1-0.1-0.2-0.1-0.1-0.2-0.1-0.4-0.1q-1.3-0.1-1.9-1.2c-0.5-0.7-0.8-1.5-0.8-2.7-0.1-0.5-0.1-0.5-0.2-0.6 0-0.1-0.1-0.1-0.2-0.1-0.1 0-0.2 0-0.2 0.1-0.1 0.1-0.1 0.1-0.2 0.6-0.1 1.9-0.7 3.2-1.9 3.7-0.2 0.1-0.7 0.2-0.9 0.2-0.1 0-0.2 0-0.2 0.1q-0.2 0.2-0.1 0.4 0.1 0.2 0.4 0.2c0.7 0 1.5 0.4 1.9 1.1 0.5 0.7 0.8 1.6 0.8 2.8 0.1 0.5 0.1 0.7 0.4 0.7 0.1 0 0.1 0 0.2-0.1zm7.8-11.5c0.1 0 0.3-0.1 0.3-0.2 0.2-0.2 0.3-0.4 0.3-1 0-0.4 0-1 0-1.5 0.2-4.8 0.9-6.1 3.4-6.4 0.4-0.1 1.4-0.2 2.2-0.2 0.6 0 0.8 0 1.1-0.2 0.3-0.2 0.4-0.5 0.4-0.9 0-0.2 0-0.2-0.1-0.4q-0.1-0.4-0.5-0.5c-0.2-0.1-0.3-0.1-1.2-0.1-1.4-0.1-1.9-0.1-2.6-0.3q-1.4-0.3-2-1.5c-0.4-1.1-0.6-2.5-0.7-5.5 0-1.5 0-1.6-0.3-1.8 0-0.1-0.2-0.2-0.3-0.2-0.1-0.1-0.2-0.1-0.4-0.1-0.3 0-0.3 0-0.5 0.1-0.2 0.1-0.4 0.3-0.5 0.5 0 0.1 0 0.4 0 1.1-0.1 3.3-0.3 4.8-0.8 5.9-0.5 0.9-1.2 1.4-2.4 1.6-0.5 0.1-1 0.1-2.1 0.2-1 0-1.1 0-1.2 0.1-0.8 0.3-0.9 1.3-0.2 1.8 0.2 0.2 0.4 0.2 1.1 0.2 2.9 0 4 0.4 4.7 1.7 0.6 1 0.8 2.5 0.8 5.7 0.1 1.4 0.1 1.5 0.3 1.7 0.3 0.4 0.8 0.5 1.2 0.2zm-18.1-9.7c0.1-0.1 0.1-0.2 0.1-0.5 0-0.9 0.3-2 0.7-2.6 0.3-0.6 0.7-0.9 1.2-1.1 0.3-0.2 0.5-0.2 0.8-0.3 0.3 0 0.5-0.1 0.5-0.2 0.1-0.3-0.1-0.5-0.4-0.5-0.3 0-0.7-0.1-1.1-0.3-0.3-0.1-0.7-0.5-0.9-0.9-0.5-0.7-0.7-1.6-0.7-2.6 0-0.3-0.1-0.5-0.1-0.6-0.1-0.2-0.4-0.2-0.5-0.1l-0.2 0.1v0.5c-0.1 1.9-0.7 3.1-1.7 3.6-0.4 0.2-0.6 0.3-1 0.3-0.3 0-0.3 0-0.4 0.1-0.1 0.2-0.1 0.4 0 0.5 0.1 0.1 0.1 0.1 0.4 0.1 0.4 0.1 0.6 0.1 0.9 0.3 0.6 0.3 1.1 0.8 1.4 1.5 0.2 0.6 0.3 1.2 0.4 2 0 0.5 0.1 0.6 0.1 0.7 0.1 0.1 0.4 0.2 0.5 0z"/></svg>